Coordinates
version=1
nRows=26
nColumns=24
inDegrees=yes

Units are S.I. units (second, meters, Newtons, ...)
Angles are in degrees.

endheader
time	pelvis_tilt	pelvis_list	pelvis_rotation	pelvis_tx	pelvis_ty	pelvis_tz	hip_flexion_r	hip_adduction_r	hip_rotation_r	knee_angle_r	ankle_angle_r	subtalar_angle_r	mtp_angle_r	hip_flexion_l	hip_adduction_l	hip_rotation_l	knee_angle_l	ankle_angle_l	subtalar_angle_l	mtp_angle_l	lumbar_extension	lumbar_bending	lumbar_rotation
      0.84583333	      3.21168309	     -5.49245442	     -3.92234900	     -0.50205898	      1.01950985	      0.31474501	      7.49467554	      8.29094162	     -2.00012065	    -13.43317825	     -4.26780193	    -13.81912630	     -2.15198850	     15.14325814	    -12.06504320	     -9.06410445	    -72.33530846	      1.45314618	    -14.92144147	     -5.35714090	    -14.70075072	      7.18459110	      7.39149625
      0.85000000	      3.20192428	     -5.42939901	     -4.04545522	     -0.49689654	      1.02034512	      0.31511920	      7.03170898	      8.23583491	     -1.88339224	    -13.14494077	     -4.20454155	    -13.78660897	     -2.14723416	     15.72171673	    -12.00442983	     -9.08890262	    -72.00631714	      1.64513382	    -14.93481190	     -5.37795635	    -14.70480217	      7.08573898	      7.44010671
      0.85416667	      3.32390641	     -5.34246141	     -4.30798214	     -0.49178122	      1.02141518	      0.31584563	      6.42394080	      8.17667460	     -1.57423087	    -12.85894883	     -4.15057283	    -13.77773872	     -2.10522876	     16.05992873	    -11.97544725	     -9.30439167	    -71.54985641	      1.87225121	    -14.81394599	     -5.57748414	    -14.89388732	      6.88619955	      7.83249672
      0.85833333	      3.31669238	     -5.27011758	     -4.42611643	     -0.48661760	      1.02221358	      0.31618302	      5.96032617	      8.10147454	     -1.47648699	    -12.56849618	     -4.11161124	    -13.72769232	     -2.09436574	     16.59528485	    -11.90199711	     -9.34044785	    -71.08072332	      2.06143908	    -14.74536009	     -5.61982147	    -14.90335528	      6.78033583	      7.90629716
      0.86250000	      3.36793953	     -5.19213084	     -4.59103368	     -0.48144508	      1.02309211	      0.31660956	      5.43130986	      8.01884169	     -1.32930269	    -12.27946049	     -4.05290371	    -13.63703438	     -2.07453000	     17.01586563	    -11.84008859	     -9.45368677	    -70.52363622	      2.26912559	    -14.65455746	     -5.68436092	    -14.98648488	      6.64425747	      8.07813954
      0.86666667	      3.54867146	     -5.09872189	     -4.83190130	     -0.47625999	      1.02420011	      0.31726199	      4.74986428	      7.92544924	     -1.07328240	    -11.97961504	     -3.92690339	    -13.59489818	     -2.02984913	     17.21928671	    -11.79775617	     -9.70210927	    -69.84302481	      2.38376193	    -14.60801280	     -5.81982309	    -15.21660556	      6.44025426	      8.38296067
      0.87083333	      3.66337519	     -5.01958286	     -5.02014204	     -0.47106580	      1.02514458	      0.31776559	      4.14238543	      7.83599067	     -0.89299523	    -11.67289603	     -3.86540192	    -13.55151886	     -1.98490281	     17.50516938	    -11.75006041	     -9.88550829	    -69.13325743	      2.54115409	    -14.54214561	     -5.94379839	    -15.36572488	      6.28052245	      8.57689864
      0.87500000	      3.75771460	     -4.93317459	     -5.21113783	     -0.46586278	      1.02602363	      0.31826584	      3.56229715	      7.73462229	     -0.71763661	    -11.37600745	     -3.79066711	    -13.47121961	     -1.94182861	     17.79242104	    -11.69582417	    -10.07908191	    -68.36335229	      2.67885964	    -14.50516486	     -6.05000346	    -15.49296859	      6.10383188	      8.75881038
      0.87916667	      3.91619805	     -4.85564027	     -5.42117163	     -0.46065813	      1.02698001	      0.31879124	      2.90789018	      7.63436436	     -0.51677495	    -11.07137243	     -3.72110503	    -13.40067265	     -1.89062737	     17.96969807	    -11.65699362	    -10.32094485	    -67.51779373	      2.81925618	    -14.47539591	     -6.16754404	    -15.69110002	      5.93934189	      8.97615253
      0.88333333	      4.06089925	     -4.77302103	     -5.62425762	     -0.45543205	      1.02787687	      0.31930147	      2.27364638	      7.52358237	     -0.33958880	    -10.77681155	     -3.63951890	    -13.33521760	     -1.84177806	     18.14080810	    -11.61243145	    -10.56796426	    -66.61136724	      2.93867460	    -14.43794555	     -6.27335549	    -15.86492051	      5.76400759	      9.16774300
      0.88750000	      4.20458456	     -4.69614963	     -5.83740904	     -0.45019610	      1.02873787	      0.31983895	      1.64016353	      7.41627800	     -0.14787458	    -10.48200113	     -3.56581190	    -13.26778503	     -1.79148410	     18.28506624	    -11.58131359	    -10.83938581	    -65.64698463	      3.04942658	    -14.41927272	     -6.37815844	    -16.03763808	      5.59159733	      9.37741554
      0.89166667	      4.35727938	     -4.61830377	     -6.05777282	     -0.44494558	      1.02958076	      0.32038823	      0.99858733	      7.30220976	      0.04680571	    -10.19080087	     -3.48563306	    -13.20111796	     -1.74154097	     18.38955125	    -11.55213858	    -11.13596553	    -64.61906165	      3.14853776	    -14.40657175	     -6.48051023	    -16.21402561	      5.40753294	      9.57712730
      0.89583333	      4.53752444	     -4.54954169	     -6.27657732	     -0.43972486	      1.03042080	      0.32092805	      0.32740473	      7.19054553	      0.26734291	     -9.89589870	     -3.41235991	    -13.13158255	     -1.69100524	     18.44174314	    -11.52870280	    -11.44229852	    -63.53589086	      3.24041835	    -14.39993883	     -6.58664060	    -16.43662981	      5.23553636	      9.79597637
      0.90000000	      4.67634166	     -4.48110699	     -6.50562096	     -0.43447394	      1.03115700	      0.32149221	     -0.29125232	      7.07979942	      0.48575125	     -9.62047592	     -3.32104660	    -13.07018109	     -1.64279773	     18.51284026	    -11.51625402	    -11.77213812	    -62.40121581	      3.31367106	    -14.40590112	     -6.69335400	    -16.59923643	      5.06098397	     10.00159437
      0.90416667	      4.86338482	     -4.41891508	     -6.73879580	     -0.42922582	      1.03192193	      0.32207370	     -0.96189665	      6.96555891	      0.70910378	     -9.34573063	     -3.23207518	    -13.02041696	     -1.59754347	     18.49920966	    -11.51047962	    -12.13175917	    -61.20395154	      3.38061218	    -14.40620350	     -6.80090768	    -16.81586007	      4.87775559	     10.22188328
      0.90833333	      5.00224794	     -4.36919448	     -6.96812348	     -0.42398291	      1.03256418	      0.32264139	     -1.57756635	      6.86673685	      0.94899203	     -9.07572530	     -3.14600940	    -12.97827787	     -1.55640537	     18.52349846	    -11.52038936	    -12.48922277	    -59.96858245	      3.43011639	    -14.43167209	     -6.91116179	    -16.98134512	      4.71969915	     10.43403673
      0.91250000	      5.16411908	     -4.33096414	     -7.20003553	     -0.41874374	      1.03318935	      0.32322542	     -2.21531895	      6.77258553	      1.18651488	     -8.81249971	     -3.05822745	    -12.93608536	     -1.51881021	     18.49595100	    -11.54476411	    -12.87009844	    -58.68278545	      3.47503016	    -14.45090311	     -7.02898088	    -17.17410991	      4.56729241	     10.65542989
      0.91666667	      5.30163889	     -4.28730523	     -7.43886418	     -0.41348651	      1.03374022	      0.32380459	     -2.81852915	      6.66944763	      1.42970644	     -8.56776095	     -2.95126884	    -12.89544640	     -1.48678132	     18.46726448	    -11.56347566	    -13.27271068	    -57.34199023	      3.49518484	    -14.50030752	     -7.14792886	    -17.33159756	      4.40607075	     10.86512648
      0.92083333	      5.43347510	     -4.27047798	     -7.66493919	     -0.40823955	      1.03422384	      0.32436107	     -3.41903355	      6.59197746	      1.67563161	     -8.31772197	     -2.85937153	    -12.86275798	     -1.45928672	     18.42942006	    -11.60866271	    -13.67080270	    -55.96637841	      3.51763343	    -14.53260150	     -7.27330451	    -17.48997309	      4.28020772	     11.08100262
      0.92500000	      5.53105132	     -4.25318541	     -7.89138119	     -0.40298727	      1.03460449	      0.32491119	     -3.97272195	      6.51375138	      1.91337788	     -8.08929563	     -2.74329223	    -12.82705807	     -1.43887968	     18.40883906	    -11.65560742	    -14.08504851	    -54.54812653	      3.51672838	    -14.59588457	     -7.39751708	    -17.60841608	      4.15760613	     11.27216814
      0.92916667	      5.66738327	     -4.27809790	     -8.11353318	     -0.39775094	      1.03498966	      0.32546842	     -4.57824068	      6.47135811	      2.16116922	     -7.84529815	     -2.66541396	    -12.78556442	     -1.42015390	     18.32161070	    -11.74866989	    -14.51616842	    -53.09324150	      3.51113176	    -14.60753252	     -7.56840938	    -17.77670586	      4.07316928	     11.53233058
      0.93333333	      5.71189196	     -4.28081088	     -8.31360157	     -0.39250647	      1.03516966	      0.32593758	     -5.06079138	      6.41337592	      2.37692474	     -7.65147205	     -2.50373242	    -12.74771797	     -1.41158716	     18.33097517	    -11.80400387	    -14.91538463	    -51.60405551	      3.49465238	    -14.71106358	     -7.69415588	    -17.83162478	      3.98618225	     11.65210016
      0.93750000	      5.79015119	     -4.29610198	     -8.51611563	     -0.38724075	      1.03536770	      0.32641258	     -5.59122333	      6.35788982	      2.59048067	     -7.43270088	     -2.38319446	    -12.70081706	     -1.40949639	     18.27129229	    -11.87278180	    -15.35425789	    -50.06295361	      3.46194980	    -14.77135501	     -7.82650296	    -17.93544877	      3.90603883	     11.83150941
      0.94166667	      5.88847549	     -4.35726553	     -8.71418754	     -0.38202447	      1.03553955	      0.32688393	     -6.14256905	      6.34572058	      2.81055073	     -7.22399021	     -2.26696170	    -12.64361133	     -1.41530365	     18.17111640	    -11.98993401	    -15.80411613	    -48.49140419	      3.41247594	    -14.78585696	     -8.00751998	    -18.06658230	      3.87490842	     12.07471212
      0.94583333	      5.85339660	     -4.39823228	     -8.87891659	     -0.37676703	      1.03543793	      0.32723279	     -6.53356842	      6.32961140	      2.98493337	     -7.05049473	     -2.09769205	    -12.59016378	     -1.42319966	     18.22262839	    -12.07203422	    -16.19924644	    -46.90481516	      3.37639909	    -14.88522496	     -8.12951972	    -18.04029022	      3.86293117	     12.15272061
      0.95000000	      5.87070794	     -4.45213839	     -9.05128964	     -0.37150719	      1.03538881	      0.32759464	     -6.98698026	      6.31252383	      3.16093616	     -6.86710105	     -1.94450155	    -12.50416720	     -1.43722356	     18.18031643	    -12.16331104	    -16.63877305	    -45.25982699	      3.31119618	    -14.93072642	     -8.26195518	    -18.07410357	      3.84655189	     12.30289641
